<svg width="16" height="20" viewBox="0 0 16 20" fill="none" xmlns="http://www.w3.org/2000/svg"><path d="M1.5 20A1.5 1.5 0 0 0 0 18.5V1a1 1 0 0 1 1-1h14a1 1 0 0 1 1 1v17.5a1.5 1.5 0 0 0-1.5 1.5h-1a1.5 1.5 0 1 0-3 0h-1a1.5 1.5 0 1 0-3 0h-1a1.5 1.5 0 1 0-3 0h-1Zm4.83-7.617a4.236 4.236 0 0 0 3.086-.595l2.11 2.11a.97.97 0 0 0 1.37-1.372l-2.109-2.099a4.247 4.247 0 0 0 .614-2.99c-.297-1.793-1.745-3.27-3.547-3.557a4.318 4.318 0 0 0-4.995 4.831c.23 1.822 1.668 3.336 3.47 3.672ZM4.706 8.059a2.354 2.354 0 1 1 4.707.002 2.354 2.354 0 0 1-4.707-.002Z" clip-rule="evenodd" fill="#FFF" fill-rule="evenodd"/></svg>